<svg class="logo-jamesonwhiskey" width="150" height="36" viewBox="0 0 150 36" xmlns="http://www.w3.org/2000/svg"><title>Jameson Whiskey</title><path d="M5.642 14.338c-.354-1.327-1.486-2.008-2.256-2.057l-.02-.07s2.084-.76 3.595-1.28c1.57-.53 3.81-1.27 3.81-1.27l.04.07c-.57.52-.83 1.62-.5 2.9 0 0 2.87 11.24 3.28 12.72.41 1.49.98 2.32 1.75 2.42l.03.08c-.4.39-.72 1.36-1.13 2.26-.41.91-1.28 3.65-4.63 4.96-3.65 1.42-7.38.56-8.96-2.01-1.04-1.67-.81-3.98.86-4.92 1.45-.81 3.01-.29 3.61.9.58 1.16.19 2.39-.27 2.8-.09.09 0 .25.22.4.99.66 2.09.62 3.16.05 1.37-.73 1.83-1.9 1.12-4.62-.57-2.18-3.26-11.81-3.66-13.29zm28.578 13.14c-1.545.394-4.175.98-4.175.98l-.02-.07c.614-.563 1.28-1.895.32-3.728l-1.435-2.888-6.056 1.634-.237 3.396c-.01 2.038 1.055 2.916 1.87 3.092l.017.074s-1.94.6-3.452 1.03c-1.48.473-3.354 1.03-3.354 1.03l-.024-.072c.586-.5 1.226-2.198 1.35-4.175.338-5.27.836-13.15 1.28-16.68.217-1.69.008-3.3-1.306-3.75l-.02-.09s1.844-.54 4.087-1.07c1.88-.44 4.125-1.02 4.125-1.02l.03.09c-.87 1.16-.205 2.37.62 3.89.78 1.45 7.414 13.57 7.973 14.57.976 1.68 1.602 2.36 2.604 2.8l.01.08-4.207.9zM23.698 11.293l-.604 8.678 4.323-1.2-3.72-7.47zM53.778.877L60.92.33l.015.07c-1.863.882-1.664 2.478-1.475 4.957l.95 14.122c.23 2.06.743 3.66 1.66 4.06l-.005.07s-1.665.1-3.962.28c-2.285.18-3.98.35-3.98.35l-.015-.08c.838-.57 1.55-2.31 1.392-4.45 0 0-.617-9.19-.68-9.96-.078-.87.007-1.47.007-1.47s-.112.64-.334 1.38L49.91 25l-.12.01s-6.48-11.96-7.06-12.92c-.466-.77-.65-1.496-.65-1.496s.226.68.375 1.596c.15.915 1.3 8.982 1.3 8.982.37 2.115 1.49 3.63 2.435 3.972l.007.074-6.267 1.02-.02-.07c.792-.61.9-2.285.615-4.346l-1.9-14.002C38.33 5.695 37.243 4 35.663 3.48l-.004-.075 7.11-1.212s5.94 10.748 6.98 12.382C50.39 12.53 53.78.877 53.78.877zM80.893.163l-.176 5.126h-.074c-.82-1.91-2.893-2.3-4.75-2.28l-4.025.04-.11 6.18 2.04.05c2.713.05 3.517-.17 4.508-1.89l.072.01-.258 7.34h-.073c-.897-1.91-2.902-2.04-4.757-2.02l-1.527-.01-.16 6.82 4.205.08c2.713.05 4.073-.7 4.95-2.26l.073.01-.75 6.02c-4.96-.168-10.66-.198-15.1.004l-.01-.073c1.01-.66 1.56-2.15 1.57-4.393L66.7 4.3c.02-2.08-.12-3.41-1.57-4.13l.01-.07c4.84-.18 11-.19 15.77.03zm10.825 24.48c-2.98-.09-3.3-.93-4.987-1.316-1.23-.282-2.07.257-2.44.692l-.07-.01.36-8.23.07-.01c.61 1.59 2.34 3.8 4.35 4.92 1.83 1.01 3.67.59 4.62-.6.82-1.04 1.03-2.97-.27-4.28-1.29-1.32-3.33-2.2-5.04-3.51-3.46-2.66-3.24-6.24-2.15-8.24 1.5-2.77 4.67-3.9 7.5-3.63 1.72.16 2.5.6 3.7.99 1.21.38 2.28.15 2.5.03l.07.01-.54 6.49h-.07c-.62-1.71-2.67-3.85-4.83-4.25-1.89-.35-2.94.32-3.4 1.09-.71 1.2-.4 2.53.91 3.43 1.89 1.3 4.19 2.27 5.69 3.69 2.2 2.06 2.9 5.72.95 8.95-1.57 2.61-4.66 3.82-6.88 3.76zm30.662-6.927c-1.622 6.662-6.576 11.277-12.403 10.002-6.35-1.39-8.303-7.375-6.654-14.167 1.628-6.71 6.23-10.94 12.16-9.94 7.032 1.18 8.478 7.61 6.896 14.11zm-7.463-10.768c-3.054-.67-5.09 3.02-6.14 7.78-1.103 5.023-.59 8.91 2.206 9.522 2.666.583 4.923-2.7 6.026-7.72 1.04-4.762.96-8.914-2.1-9.582zm21.707 16.195c.154.636.166 1.47.166 1.47s-.024-.395.28-1.38l2.608-7.646c.662-1.972.64-3.406-.24-4.53l.033-.063 6.33 2.346-.01.073c-1.31.384-2.32 1.472-2.99 3.457-.37 1.19-6.15 18.168-6.15 18.168l-3.19-1.203L130.3 18.3c-.16-.634-.168-1.47-.168-1.47s.02.395-.28 1.382c-.27.886-2.882 8.685-2.882 8.685-.584 2.068-.507 3.493.327 4.584l-.028.07-6.77-1.98.01-.07c1.37-.38 2.54-1.42 3.18-3.4l4.28-13.41c.66-2.19.49-4.19-.71-5.34l.03-.07 6.23 1.81 3.09 14.08zm11.803-6.333c1.14.312 1.81 1.483 1.495 2.623-.312 1.14-1.486 1.808-2.63 1.494-1.143-.312-1.814-1.484-1.498-2.624.316-1.14 1.49-1.807 2.633-1.493zm-.136.482c-.88-.244-1.73.26-1.98 1.153-.24.894.23 1.758 1.12 2 .89.246 1.74-.26 1.98-1.152.25-.893-.22-1.76-1.11-2zm-1.69 2.166c.25.04.28.035.33-.15l.37-1.332c.05-.186.04-.203-.2-.297l.05-.18 1.24.33c.35.09.62.33.52.72-.07.27-.32.45-.63.46l.24.75c.06.16.14.23.22.26l-.04.17-.5-.14c-.11-.03-.166-.12-.21-.3l-.216-.8-.142-.04-.14.51c-.05.18-.03.2.2.3l-.05.17-1.04-.29.048-.18zm1.2-.654c.16.044.39-.018.48-.368.09-.31-.06-.448-.24-.497l-.17-.05-.24.86.17.04z" fill="#FFF" fill-rule="evenodd"></path></svg>